name rise49.8558peak67.6521fall70.3087.mot
datacolumns 19
datarows 21
range 11.90828400000000 11.94162500000000
endheader
time	ground_force1_vx	ground_force1_vy	ground_force1_vz	ground_force1_px	ground_force1_py	ground_force1_pz	ground_force2_vx	ground_force2_vy	ground_force2_vz	ground_force2_px	ground_force2_py	ground_force2_pz	ground_torque1_x	ground_torque1_y	ground_torque1_z	ground_torque2_x	ground_torque2_y	ground_torque2_z	
11.90828400000000	14.14076400000000	697.62807199999997	42.91428200000000	0.32639000000000	0.00000000000000	0.10988800000000	0.00000000000000	0.00000000000000	0.00000000000000	0.00000000000000	0.00000000000000	0.00000000000000	0.00000000000000	24.46255300000000	0.00000000000000	0.00000000000000	0.00000000000000	0.00000000000000	
11.90995500000000	13.81365500000000	698.25977000000000	42.93631200000000	0.32544100000000	0.00000000000000	0.10986300000000	0.00000000000000	0.00000000000000	0.00000000000000	0.00000000000000	0.00000000000000	0.00000000000000	0.00000000000000	24.48947400000000	0.00000000000000	0.00000000000000	0.00000000000000	0.00000000000000	
11.91162200000000	13.48307000000000	698.91996900000004	42.96604800000000	0.32451800000000	0.00000000000000	0.10983700000000	0.00000000000000	0.00000000000000	0.00000000000000	0.00000000000000	0.00000000000000	0.00000000000000	0.00000000000000	24.52407300000000	0.00000000000000	0.00000000000000	0.00000000000000	0.00000000000000	
11.91328600000000	13.14867200000000	699.60649799999999	43.00310800000000	0.32362100000000	0.00000000000000	0.10981100000000	0.00000000000000	0.00000000000000	0.00000000000000	0.00000000000000	0.00000000000000	0.00000000000000	0.00000000000000	24.56611800000000	0.00000000000000	0.00000000000000	0.00000000000000	0.00000000000000	
11.91495200000000	12.81013700000000	700.31727100000001	43.04710500000000	0.32274900000000	0.00000000000000	0.10978400000000	0.00000000000000	0.00000000000000	0.00000000000000	0.00000000000000	0.00000000000000	0.00000000000000	0.00000000000000	24.61537500000000	0.00000000000000	0.00000000000000	0.00000000000000	0.00000000000000	
11.91662200000000	12.46715500000000	701.05028700000003	43.09765500000000	0.32190100000000	0.00000000000000	0.10975600000000	0.00000000000000	0.00000000000000	0.00000000000000	0.00000000000000	0.00000000000000	0.00000000000000	0.00000000000000	24.67160500000000	0.00000000000000	0.00000000000000	0.00000000000000	0.00000000000000	
11.91828600000000	12.11943100000000	701.80364399999996	43.15438000000000	0.32107800000000	0.00000000000000	0.10972700000000	0.00000000000000	0.00000000000000	0.00000000000000	0.00000000000000	0.00000000000000	0.00000000000000	0.00000000000000	24.73457000000000	0.00000000000000	0.00000000000000	0.00000000000000	0.00000000000000	
11.91995500000000	11.76668400000000	702.57553499999995	43.21690000000000	0.32027700000000	0.00000000000000	0.10969800000000	0.00000000000000	0.00000000000000	0.00000000000000	0.00000000000000	0.00000000000000	0.00000000000000	0.00000000000000	24.80402900000000	0.00000000000000	0.00000000000000	0.00000000000000	0.00000000000000	
11.92162200000000	11.40864600000000	703.36426200000005	43.28484400000000	0.31949800000000	0.00000000000000	0.10966700000000	0.00000000000000	0.00000000000000	0.00000000000000	0.00000000000000	0.00000000000000	0.00000000000000	0.00000000000000	24.87974100000000	0.00000000000000	0.00000000000000	0.00000000000000	0.00000000000000	
11.92328500000000	11.04506500000000	704.16823299999999	43.35784600000000	0.31874000000000	0.00000000000000	0.10963600000000	0.00000000000000	0.00000000000000	0.00000000000000	0.00000000000000	0.00000000000000	0.00000000000000	0.00000000000000	24.96146500000000	0.00000000000000	0.00000000000000	0.00000000000000	0.00000000000000	
11.92495600000000	10.67570500000000	704.98596999999995	43.43554800000000	0.31800300000000	0.00000000000000	0.10960400000000	0.00000000000000	0.00000000000000	0.00000000000000	0.00000000000000	0.00000000000000	0.00000000000000	0.00000000000000	25.04896100000000	0.00000000000000	0.00000000000000	0.00000000000000	0.00000000000000	
11.92662000000000	10.30034300000000	705.81611199999998	43.51759800000000	0.31728400000000	0.00000000000000	0.10957100000000	0.00000000000000	0.00000000000000	0.00000000000000	0.00000000000000	0.00000000000000	0.00000000000000	0.00000000000000	25.14198900000000	0.00000000000000	0.00000000000000	0.00000000000000	0.00000000000000	
11.92829000000000	9.91877300000000	706.65741200000002	43.60365500000000	0.31658300000000	0.00000000000000	0.10953800000000	0.00000000000000	0.00000000000000	0.00000000000000	0.00000000000000	0.00000000000000	0.00000000000000	0.00000000000000	25.24031100000000	0.00000000000000	0.00000000000000	0.00000000000000	0.00000000000000	
11.92995600000000	9.53080400000000	707.50874599999997	43.69338900000000	0.31589900000000	0.00000000000000	0.10950300000000	0.00000000000000	0.00000000000000	0.00000000000000	0.00000000000000	0.00000000000000	0.00000000000000	0.00000000000000	25.34369200000000	0.00000000000000	0.00000000000000	0.00000000000000	0.00000000000000	
11.93162400000000	9.13626100000000	708.36910799999998	43.78647900000000	0.31523100000000	0.00000000000000	0.10946800000000	0.00000000000000	0.00000000000000	0.00000000000000	0.00000000000000	0.00000000000000	0.00000000000000	0.00000000000000	25.45189700000000	0.00000000000000	0.00000000000000	0.00000000000000	0.00000000000000	
11.93328900000000	8.73498200000000	709.23761400000001	43.88262000000000	0.31457700000000	0.00000000000000	0.10943200000000	0.00000000000000	0.00000000000000	0.00000000000000	0.00000000000000	0.00000000000000	0.00000000000000	0.00000000000000	25.56469600000000	0.00000000000000	0.00000000000000	0.00000000000000	0.00000000000000	
11.93495300000000	8.32682300000000	710.11349700000005	43.98151700000000	0.31393600000000	0.00000000000000	0.10939600000000	0.00000000000000	0.00000000000000	0.00000000000000	0.00000000000000	0.00000000000000	0.00000000000000	0.00000000000000	25.68186200000000	0.00000000000000	0.00000000000000	0.00000000000000	0.00000000000000	
11.93661900000000	7.91165600000000	710.99611300000004	44.08289000000000	0.31330600000000	0.00000000000000	0.10935800000000	0.00000000000000	0.00000000000000	0.00000000000000	0.00000000000000	0.00000000000000	0.00000000000000	0.00000000000000	25.80317300000000	0.00000000000000	0.00000000000000	0.00000000000000	0.00000000000000	
11.93828800000000	7.48936600000000	711.88493100000005	44.18647500000000	0.31268700000000	0.00000000000000	0.10932000000000	0.00000000000000	0.00000000000000	0.00000000000000	0.00000000000000	0.00000000000000	0.00000000000000	0.00000000000000	25.92840900000000	0.00000000000000	0.00000000000000	0.00000000000000	0.00000000000000	
11.93995500000000	7.05985600000000	712.77953800000000	44.29202300000000	0.31207700000000	0.00000000000000	0.10928200000000	0.00000000000000	0.00000000000000	0.00000000000000	0.00000000000000	0.00000000000000	0.00000000000000	0.00000000000000	26.05735500000000	0.00000000000000	0.00000000000000	0.00000000000000	0.00000000000000	
11.94162500000000	6.62304100000000	713.67963299999997	44.39930200000000	0.31147400000000	0.00000000000000	0.10924300000000	0.00000000000000	0.00000000000000	0.00000000000000	0.00000000000000	0.00000000000000	0.00000000000000	0.00000000000000	26.18980400000000	0.00000000000000	0.00000000000000	0.00000000000000	0.00000000000000	
